<?xml version="1.0" standalone="no"?>
<!DOCTYPE svg PUBLIC "-//W3C//DTD SVG 20010904//EN"
 "http://www.w3.org/TR/2001/REC-SVG-20010904/DTD/svg10.dtd">
<svg version="1.0" xmlns="http://www.w3.org/2000/svg"
 width="512.000000pt" height="512.000000pt" viewBox="0 0 512.000000 512.000000"
 preserveAspectRatio="xMidYMid meet">

<g transform="translate(0.000000,512.000000) scale(0.100000,-0.100000)"
fill="#000000" stroke="none">
<path d="M2696 5099 c-17 -13 -65 -97 -127 -220 -54 -109 -99 -202 -99 -207 0
-4 50 -14 110 -20 687 -77 1264 -595 1416 -1272 39 -176 44 -288 44 -1061 0
-798 1 -816 56 -991 32 -100 96 -230 158 -318 42 -60 205 -248 216 -249 3 0
40 87 83 194 103 257 105 246 -71 334 -174 87 -232 161 -232 296 0 99 22 138
176 317 72 84 136 163 142 175 32 60 5 93 -155 184 -152 87 -184 114 -218 183
-35 72 -42 138 -20 212 16 55 27 69 185 229 92 93 173 180 179 192 16 32 13
88 -6 112 -10 11 -83 58 -163 104 -196 114 -240 171 -240 313 1 77 19 116 129
270 91 127 101 151 80 197 -17 38 -43 47 -207 68 -86 11 -175 28 -197 38 -61
27 -111 76 -142 139 -27 55 -28 65 -34 257 -3 110 -7 201 -8 203 -6 12 -71 42
-90 42 -14 0 -104 -30 -200 -67 -155 -58 -184 -66 -246 -66 -56 -1 -80 4 -120
25 -74 39 -105 78 -183 233 -75 148 -99 175 -160 175 -16 0 -41 -10 -56 -21z"/>
<path d="M1119 4470 c-412 -72 -749 -364 -872 -755 -37 -118 -48 -194 -49
-327 0 -129 10 -160 58 -178 15 -6 324 -10 779 -10 l753 0 26 -31 c35 -41 34
-83 -3 -120 l-29 -29 -174 0 -173 -1 -90 -151 c-98 -165 -137 -206 -203 -215
-104 -14 -152 20 -242 172 -34 58 -63 105 -65 105 -2 0 -31 -47 -65 -105 -34
-58 -66 -108 -71 -111 -5 -3 10 -42 33 -86 73 -141 199 -248 364 -310 58 -22
71 -23 644 -28 447 -4 590 -8 607 -18 44 -25 54 -71 28 -122 -20 -39 -64 -50
-203 -50 l-113 0 -32 -36 c-116 -132 -212 -312 -259 -489 -17 -63 -22 -110
-22 -220 -1 -77 3 -157 7 -178 l8 -39 54 60 c192 211 505 344 850 359 117 6
122 5 148 -18 17 -15 30 -38 34 -61 5 -32 1 -41 -25 -68 -25 -25 -39 -30 -77
-30 -136 0 -340 -38 -475 -89 -171 -64 -347 -215 -416 -355 -35 -71 -39 -90
-42 -168 -2 -48 -1 -88 2 -88 4 0 32 13 64 29 130 65 324 111 467 111 76 0 84
-2 109 -26 36 -37 35 -86 -2 -123 -25 -25 -36 -28 -127 -34 -352 -24 -627
-201 -714 -459 -29 -85 -27 -113 8 -149 l29 -29 429 0 c235 0 471 5 523 10
172 18 284 57 360 126 105 95 143 215 159 498 7 135 8 139 35 162 37 32 89 32
121 -1 28 -27 28 -25 25 -150 -4 -274 -61 -478 -168 -596 l-44 -49 918 0 918
0 -26 28 c-13 15 -173 187 -354 382 -181 195 -350 380 -375 410 -106 127 -189
277 -244 443 -68 206 -67 193 -75 1127 -6 809 -8 849 -28 935 -63 274 -186
505 -372 699 -177 185 -364 305 -593 381 -216 71 -175 68 -972 71 -396 1 -741
-1 -766 -6z m1053 -181 c228 -48 399 -256 398 -488 -1 -94 -13 -149 -51 -226
-132 -270 -477 -361 -728 -194 -212 142 -282 419 -165 652 36 70 145 177 217
212 107 52 220 67 329 44z m-1479 -551 c42 -22 46 -38 47 -171 0 -123 -1 -129
-25 -152 -37 -38 -95 -35 -129 6 -25 29 -26 36 -26 151 0 119 0 120 29 149 31
31 67 37 104 17z m388 -17 c29 -29 29 -30 29 -149 0 -115 -1 -122 -26 -151
-34 -41 -92 -44 -129 -6 -24 23 -25 29 -25 152 1 132 5 148 45 171 36 20 75
14 106 -17z m2097 -1007 c21 -24 28 -66 16 -98 -3 -9 -92 -80 -198 -157 -105
-78 -204 -154 -219 -168 -94 -86 -99 -238 -9 -323 54 -52 94 -69 163 -69 75
-1 94 10 320 178 97 72 186 136 197 142 36 19 72 13 103 -18 33 -33 38 -74 14
-108 -14 -19 -292 -232 -406 -310 -208 -143 -502 -64 -606 163 -67 146 -43
323 58 439 31 36 435 344 469 358 27 11 75 -3 98 -29z"/>
<path d="M1997 4110 c-92 -24 -178 -96 -219 -185 -35 -76 -33 -191 5 -267 30
-62 83 -115 149 -150 36 -19 58 -23 138 -23 80 0 102 4 138 23 66 35 119 88
149 150 24 49 28 69 28 142 -1 72 -5 93 -27 135 -34 64 -100 128 -160 155 -54
24 -148 33 -201 20z m75 -281 c31 -17 50 -71 37 -108 -24 -68 -122 -79 -160
-18 -49 79 39 171 123 126z"/>
<path d="M470 2983 c65 -110 85 -143 90 -143 5 0 25 33 90 143 l22 37 -112 0
-112 0 22 -37z"/>
<path d="M1020 2983 c65 -110 85 -143 90 -143 5 0 25 33 90 143 l22 37 -112 0
-112 0 22 -37z"/>
</g>
</svg>
